<svg xmlns="http://www.w3.org/2000/svg" width="66" height="60" fill="none" viewBox="0 0 66 60"><linearGradient id="a" x1="32.977" x2="32.977" y1="51.442" y2="21.77" gradientUnits="userSpaceOnUse"><stop offset="0" stop-color="#deedc9"/><stop offset=".661" stop-color="#8bba25"/></linearGradient><g fill-rule="evenodd" clip-rule="evenodd"><path fill="#ff6f3d" d="M28.94 59.264 2.209 46.907c-2.277-1.08-2.277-2.747 0-3.727l9.307-4.316 17.327 8.043c2.277 1.078 5.94 1.078 8.118 0l17.327-8.043 9.307 4.316c2.277 1.079 2.277 2.746 0 3.727L36.861 59.264c-2.079.981-5.742.981-7.92 0"/><path fill="url(#a)" d="M28.94 44.06 2.209 31.704c-2.277-1.08-2.277-2.746 0-3.727l9.109-4.218 17.624 8.14c2.277 1.08 5.94 1.08 8.118 0l17.624-8.14 9.11 4.218c2.276 1.079 2.276 2.746 0 3.727L37.058 44.06c-2.277 1.078-5.94 1.078-8.118 0"/><path fill="#95c038" d="M28.94 44.06 2.209 31.704c-2.277-1.08-2.277-2.746 0-3.727l9.109-4.218 17.624 8.14c2.277 1.08 5.94 1.08 8.118 0l17.624-8.14 9.11 4.218c2.276 1.079 2.276 2.746 0 3.727L37.058 44.06c-2.277 1.078-5.94 1.078-8.118 0"/><path fill="#5dc0e8" d="M28.94 29.252 2.209 16.894c-2.277-1.079-2.277-2.746 0-3.727L28.94.809c2.277-1.079 5.94-1.079 8.118 0l26.733 12.358c2.277 1.079 2.277 2.746 0 3.727L37.06 29.252c-2.277.98-5.94.98-8.118 0"/></g></svg>