<svg xmlns="http://www.w3.org/2000/svg" width="16" height="16" viewBox="0 0 16 16"><path fill="#bebebe" d="M15.1 6.99A2 2 0 0015 6.78s-.052.06-.139.175a5 5 0 00-.171-.94A6.4 6.4.0 0014.3 4.9 5 5 0 0013.9 4.22Q13.8 4.1 13.7 3.98C13.4 3.55 13.1 3.29 12.8 2.79A3.6 3.6.0 0112.3 1.55a5 5 0 00-.22.813C11.8 2 11.4 1.74 11.3 1.56 10.3.694 10.4.244 10.4.244S8.69 2.18 9.45 4.21a3.9 3.9.0 001.3 1.73c.729.601 1.51 1.07 1.93 2.28A3.87 3.87.0 0011.2 6.68a3.5 3.5.0 01.278 1.39A3.3 3.3.0 017.46 11.3 3 3 0 016.65 11 3.3 3.3.0 015.67 10.1L5.66 10.1l.058.021a3 3 0 00.417.112A2.6 2.6.0 007.8 10c.52-.29.836-.503 1.09-.419h.004c.25.08.447-.162.268-.416A1.36 1.36.0 007.84 8.68c-.52.076-.999.446-1.68.087A2 2 0 016.03 8.69c-.046-.026.147.04.102.01A3.4 3.4.0 015.7 8.44c-.01-.008.104.032.093.024A1.7 1.7.0 015.35 8.02.8.8.0 015.32 7.3.63.63.0 015.6 7.04c.088.043.142.076.142.076L5.68 7C5.69 7 5.69 7 5.7 6.99c.077.033.249.12.339.173a.5.5.0 01.155.14s.03-.016.008-.08a.4.4.0 00-.16-.197h.007a1.4 1.4.0 01.197.123 1 1 0 00.079-.417.55.55.0 00-.032-.23c-.025-.047.013-.066.056-.017a.5.5.0 00-.036-.11V6.38s.024-.032.036-.043a1 1 0 01.1-.082 4.6 4.6.0 01.677-.345c.191-.084.35-.148.382-.166a1 1 0 00.136-.104.9.9.0 00.305-.527l.008-.083V4.98c-.028-.105-.207-.183-1.15-.27a.82.82.0 01-.67-.63v.005L6.1 4.19l.037-.104V4.07a2.38 2.38.0 01.919-1.14c.024-.02-.096.005-.072-.015a2 2 0 01.245-.103c.042-.018-.18-.103-.377-.082a1 1 0 00-.35.082c.047-.04.185-.092.152-.092a2.3 2.3.0 00-.713.27.14.14.0 01.014-.066 1.1 1.1.0 00-.446.344l.005-.08A1.3 1.3.0 005.3 3.4L5.3 3.4a2.9 2.9.0 00-1.63-.14L3.66 3.26h.005A1.4 1.4.0 013.38 2.93l-.007.002-.009-.01a3 3 0 01-.19-.336Q3.17 2.59 3.17 2.59c-.01.0-.019.051-.028.038V2.62a2 2 0 01-.13-.78L3 1.84a.87.87.0 00-.33.432 2 2 0 01-.065.133V2.39c.004-.032.018-.098.015-.093l-.01.014A.8.8.0 002.5 2.49a1 1 0 00-.07.177c-.002.01.0-.009.0-.03s.004-.06.0-.051l-.01.02A4.4 4.4.0 002.05 4a1.4 1.4.0 00-.014.249v.007a3 3 0 00-.378.51A7.2 7.2.0 00.854 6.72a5 5 0 01.428-.75A6.9 6.9.0 00.8 8.52a7 7 0 01.208-.753 6.4 6.4.0 00.577 2.99 6.95 6.95.0 002.75 3.12 6 6 0 001.6.769q.111.04.229.08L6.1 14.7A7.3 7.3.0 008.18 15c2.5.0 3.32-.95 3.39-1.05a1.3 1.3.0 00.295-.396q.072-.03.145-.063L12 13.5l.056-.026a5.2 5.2.0 001.05-.66 2.54 2.54.0 00.982-1.43.9.9.0 00.014-.66l.079-.13a5.9 5.9.0 00.882-2.86V7.63a3.6 3.6.0 00-.056-.64"/></svg>