<svg height="16" viewBox="0 0 16 16" width="16" xmlns="http://www.w3.org/2000/svg"><path d="m15.055 6.988a2 2 0 0 0 -.041-.212s-.052.06-.139.175a5 5 0 0 0 -.171-.94 6.4 6.4 0 0 0 -.434-1.116 5 5 0 0 0 -.396-.679q-.08-.121-.166-.235c-.263-.431-.566-.694-.916-1.192a3.6 3.6 0 0 1 -.458-1.242 5 5 0 0 0 -.22.813c-.36-.363-.672-.62-.86-.796-.932-.87-.824-1.32-.824-1.32s-1.739 1.94-.985 3.963a3.9 3.9 0 0 0 1.295 1.726c.729.601 1.513 1.074 1.927 2.283a3.87 3.87 0 0 0 -1.454-1.534 3.5 3.5 0 0 1 .278 1.388 3.295 3.295 0 0 1 -4.029 3.21 3 3 0 0 1 -.816-.278 3.3 3.3 0 0 1 -.978-.904l-.005-.008.058.021a3 3 0 0 0 .417.112 2.6 2.6 0 0 0 1.657-.196c.52-.29.836-.503 1.092-.419h.004c.25.08.447-.162.268-.416a1.36 1.36 0 0 0 -1.317-.514c-.52.076-.999.446-1.682.087a2 2 0 0 1 -.128-.075c-.046-.026.147.04.102.01a3.4 3.4 0 0 1 -.43-.256c-.01-.008.104.032.093.024a1.7 1.7 0 0 1 -.447-.453.8.8 0 0 1 -.03-.719.63.63 0 0 1 .277-.26c.088.043.142.076.142.076l-.062-.113c.008-.003.015 0 .023-.005.077.033.249.12.339.173a.5.5 0 0 1 .155.14s.03-.016.008-.08a.4.4 0 0 0 -.16-.197h.007a1.4 1.4 0 0 1 .197.123 1 1 0 0 0 .079-.417.55.55 0 0 0 -.032-.23c-.025-.047.013-.066.056-.017a.5.5 0 0 0 -.036-.11v-.004s.024-.032.036-.043a1 1 0 0 1 .1-.082 4.6 4.6 0 0 1 .677-.345c.191-.084.35-.148.382-.166a1 1 0 0 0 .136-.104.9.9 0 0 0 .305-.527l.008-.083v-.048c-.028-.105-.207-.183-1.145-.27a.82.82 0 0 1 -.67-.63v.005l-.038.104.037-.104v-.008a2.38 2.38 0 0 1 .919-1.14c.024-.02-.096.005-.072-.015a2 2 0 0 1 .245-.103c.042-.018-.18-.103-.377-.082a1 1 0 0 0 -.35.082c.047-.04.185-.092.152-.092a2.3 2.3 0 0 0 -.713.27.14.14 0 0 1 .014-.066 1.1 1.1 0 0 0 -.446.344l.005-.08a1.3 1.3 0 0 0 -.219.205l-.004.004a2.9 2.9 0 0 0 -1.627-.14l-.004-.003h.005a1.4 1.4 0 0 1 -.289-.324l-.007.002-.009-.01a3 3 0 0 1 -.19-.336q-.002-.005-.007-.005c-.01 0-.019.051-.028.038v-.003a2 2 0 0 1 -.13-.78l-.009.003a.87.87 0 0 0 -.33.432 2 2 0 0 1 -.065.133v-.016c.004-.032.018-.098.015-.093l-.01.014a.8.8 0 0 0 -.115.172 1 1 0 0 0 -.07.177c-.002.01 0-.009 0-.03s.004-.06 0-.051l-.01.02a4.4 4.4 0 0 0 -.37 1.403 1.4 1.4 0 0 0 -.014.249v.007a3 3 0 0 0 -.378.51 7.2 7.2 0 0 0 -.799 1.955 5 5 0 0 1 .428-.75 6.9 6.9 0 0 0 -.482 2.545 7 7 0 0 1 .208-.753 6.4 6.4 0 0 0 .577 2.99 6.95 6.95 0 0 0 2.752 3.12 6 6 0 0 0 1.604.769q.111.04.229.08l-.071-.031a7.3 7.3 0 0 0 2.081.305c2.495 0 3.318-.95 3.394-1.045a1.3 1.3 0 0 0 .295-.396q.072-.03.145-.063l.031-.014.056-.026a5.2 5.2 0 0 0 1.053-.66 2.54 2.54 0 0 0 .982-1.433.9.9 0 0 0 .014-.66l.079-.13a5.9 5.9 0 0 0 .882-2.859v-.085a3.6 3.6 0 0 0 -.056-.64" fill="#bebebe" stroke-width=".462479"/></svg>